<svg xmlns="http://www.w3.org/2000/svg" viewBox="0 0 1600 1000" preserveAspectRatio="xMidYMid slice">
  <defs>
    <linearGradient id="bg" x1="0" y1="0" x2="1" y2="1">
      <stop stop-color="#fff8f2" offset="0"/>
      <stop stop-color="#f9dbe5" offset="0.42"/>
      <stop stop-color="#dfeeda" offset="1"/>
    </linearGradient>
    <radialGradient id="glow" cx="50%" cy="36%" r="60%">
      <stop stop-color="#ffffff" stop-opacity="0.95" offset="0"/>
      <stop stop-color="#fff3f6" stop-opacity="0.50" offset="0.52"/>
      <stop stop-color="#f6c5d3" stop-opacity="0.20" offset="1"/>
    </radialGradient>
    <filter id="blur"><feGaussianBlur stdDeviation="10"/></filter>
  </defs>
  <rect width="1600" height="1000" fill="url(#bg)"/>
  <rect width="1600" height="1000" fill="url(#glow)"/>
  <g opacity="0.28" fill="none" stroke="#8a9f73" stroke-width="5">
    <path d="M-60 760C180 590 310 690 520 500S870 240 1110 370s300 35 550-150"/>
    <path d="M-80 860C160 700 350 760 560 610s390-330 650-190 260 130 480-30"/>
  </g>
  <g opacity="0.78">
    <g transform="translate(95 116) rotate(-18)">
      <path d="M0 0C85 90 128 204 110 330" stroke="#7c9669" stroke-width="10" fill="none" stroke-linecap="round"/>
      <ellipse cx="35" cy="75" rx="30" ry="70" fill="#a9bf8b" transform="rotate(-38 35 75)"/>
      <ellipse cx="92" cy="155" rx="28" ry="62" fill="#b8cfa0" transform="rotate(36 92 155)"/>
      <g transform="translate(95 28)">
        <circle r="38" fill="#e889a8"/><circle cx="34" cy="16" r="34" fill="#f4aec2"/><circle cx="-28" cy="24" r="31" fill="#f1a0b8"/><circle cy="48" r="34" fill="#f7c4d2"/><circle cx="6" cy="24" r="25" fill="#fff2c9"/>
      </g>
      <g transform="translate(56 245) scale(.8)">
        <circle r="38" fill="#d97b9d"/><circle cx="34" cy="16" r="34" fill="#ed9cb6"/><circle cx="-28" cy="24" r="31" fill="#e687a9"/><circle cy="48" r="34" fill="#f5b8ca"/><circle cx="6" cy="24" r="25" fill="#fff3cb"/>
      </g>
    </g>
    <g transform="translate(1420 75) rotate(26) scale(1.05)">
      <path d="M0 0C-90 105-120 240-75 365" stroke="#7c9669" stroke-width="10" fill="none" stroke-linecap="round"/>
      <ellipse cx="-60" cy="96" rx="32" ry="70" fill="#b6ca95" transform="rotate(44 -60 96)"/>
      <ellipse cx="-107" cy="205" rx="29" ry="62" fill="#9fb982" transform="rotate(-35 -107 205)"/>
      <g transform="translate(-105 50)">
        <circle r="40" fill="#d77b9c"/><circle cx="35" cy="18" r="35" fill="#f0a2ba"/><circle cx="-31" cy="25" r="33" fill="#e88fad"/><circle cy="51" r="35" fill="#f7bfd0"/><circle cx="4" cy="26" r="25" fill="#fff5ca"/>
      </g>
      <g transform="translate(-60 286) scale(.82)">
        <circle r="39" fill="#efb057"/><circle cx="34" cy="17" r="34" fill="#f7cf77"/><circle cx="-28" cy="24" r="31" fill="#f3bd60"/><circle cy="48" r="34" fill="#ffe0a0"/><circle cx="6" cy="24" r="25" fill="#fff7dc"/>
      </g>
    </g>
  </g>
  <g opacity="0.35" filter="url(#blur)">
    <circle cx="270" cy="760" r="145" fill="#f4a8bd"/>
    <circle cx="1360" cy="790" r="180" fill="#b5d3a2"/>
    <circle cx="1260" cy="215" r="115" fill="#ffdca5"/>
  </g>
</svg>
