<svg xmlns="http://www.w3.org/2000/svg" viewBox="0 0 900 650" preserveAspectRatio="xMidYMid slice">
  <defs>
    <linearGradient id="bg" x1="0" y1="0" x2="1" y2="1">
      <stop offset="0" stop-color="#eef8e9"/>
      <stop offset="1" stop-color="#b9d3a4"/>
    </linearGradient>
    <radialGradient id="r" cx="50%" cy="42%" r="55%"><stop offset="0" stop-color="#fff" stop-opacity=".78"/><stop offset="1" stop-color="#fff" stop-opacity="0"/></radialGradient>
  </defs>
  <rect width="900" height="650" fill="url(#bg)"/>
  <rect width="900" height="650" fill="url(#r)"/>
  <g transform="translate(450 345)">
    <path d="M0 210C-10 120 15 45 0-80" stroke="#789867" stroke-width="12" fill="none" stroke-linecap="round"/>
    <ellipse cx="-70" cy="75" rx="38" ry="95" fill="#97b879" transform="rotate(-45 -70 75)"/>
    <ellipse cx="80" cy="35" rx="35" ry="90" fill="#abc98c" transform="rotate(48 80 35)"/>
    <ellipse cx="-40" cy="-55" rx="45" ry="110" fill="#9fbd81" transform="rotate(-25 -40 -55)"/>
    <ellipse cx="50" cy="-75" rx="42" ry="105" fill="#b8d29b" transform="rotate(28 50 -75)"/>
    <g>
      <circle r="96" fill="#d98aa4"/>
      <circle cx="82" cy="35" r="82" fill="#eda5b8"/>
      <circle cx="-75" cy="45" r="78" fill="#e194aa"/>
      <circle cy="105" r="82" fill="#f5c1ce"/>
      <circle cx="8" cy="54" r="58" fill="#fff4c7"/>
    </g>
  </g>
  <g fill="#fff" opacity=".32">
    <circle cx="105" cy="100" r="16"/><circle cx="770" cy="130" r="11"/><circle cx="128" cy="520" r="12"/><circle cx="745" cy="505" r="18"/>
  </g>
</svg>
